<svg
   width="46.938915mm"
   height="26.577303mm"
   viewBox="0 0 46.938915 26.577303"
   version="1.1"
   id="svg1"
   xml:space="preserve"
   xmlns="http://www.w3.org/2000/svg"
   xmlns:svg="http://www.w3.org/2000/svg"><defs
     id="defs1" /><g
     id="layer2"
     transform="translate(-12.790384,-208.56964)"><path
       d="m 43.761496,234.98618 v -0.16075 h -1.928997 -1.928997 v -0.16075 -0.16075 h -0.910915 -0.910915 v -0.16075 -0.16075 h -0.803748 -0.803749 v -0.16075 -0.16075 h -0.803749 -0.803748 v -0.16075 -0.16075 H 34.223679 33.58068 v -0.16075 -0.16075 h -0.482249 -0.482249 v -0.16075 -0.16075 h -0.48225 -0.482249 v -0.16075 -0.16075 h -0.482249 -0.482249 v -0.16075 -0.16075 h -0.321499 -0.3215 v -0.16075 -0.16075 h -0.482249 -0.482249 v -0.16075 -0.16075 H 28.597439 28.11519 v -0.16075 -0.16075 h -0.3215 -0.321499 v -0.16075 -0.16075 h -0.3215 -0.321499 v -0.16075 -0.16075 h -0.3215 -0.321499 v -0.16075 -0.16075 h -0.3215 -0.321499 v -0.16075 -0.16075 h -0.321499 -0.3215 v -0.16075 -0.16074 h -0.321499 -0.3215 v -0.16075 -0.16075 h -0.321499 -0.3215 v -0.16075 -0.16075 h -0.160749 -0.16075 v -0.16075 -0.16075 h -0.3215 -0.321499 v -0.16075 -0.16075 H 22.3282 22.0067 v -0.16075 -0.16075 h -0.16075 -0.160749 v -0.16075 -0.16075 h -0.3215 -0.321499 v -0.16075 -0.16075 h -0.107167 -0.107166 v -0.16075 -0.16075 h -0.3215 -0.321499 v -0.16075 -0.16075 h -0.16075 -0.160749 v -0.16075 -0.16075 h -0.16075 -0.16075 v -0.16075 -0.16075 h -0.321499 -0.3215 v -0.16075 -0.16075 h -0.160749 -0.16075 v -0.16075 -0.16075 h -0.16075 -0.16075 v -0.16075 -0.16075 h -0.321499 -0.3215 v -0.16075 -0.16075 h -0.16075 -0.16075 v -0.10716 -0.10717 h -0.16075 -0.160749 v -0.16075 -0.16075 h -0.16075 -0.16075 v -0.16075 -0.16075 h -0.16075 -0.160749 v -0.16075 -0.16075 h -0.160749 -0.160749 v -0.16075 -0.16075 h -0.16075 -0.16075 v -0.16075 -0.16075 h -0.16075 -0.160749 v -0.16075 -0.16075 h -0.16075 -0.160749 v -0.16075 -0.16075 h -0.16075 -0.16075 v -0.16075 -0.16075 h -0.16075 -0.160749 v -0.16074 -0.16075 h -0.16075 -0.16075 v -0.16075 -0.16075 h -0.160749 -0.16075 v -0.16075 -0.16075 h -0.16075 -0.16075 v -0.16075 -0.16075 h -0.160749 -0.16075 v -0.16075 -0.16075 h -0.160751 -0.160749 v -0.16075 -0.16075 h 0.803749 0.803749 v -0.16075 -0.16075 h 0.642999 0.642998 v 0.16075 0.16075 h 0.16075 0.16075 v 0.16075 0.16075 h 0.160749 0.160749 v 0.16075 0.16075 h 0.160749 0.16075 v 0.16075 0.16075 h 0.16075 0.16075 v 0.16075 0.16075 h 0.160749 0.16075 v 0.16075 0.16075 h 0.16075 0.16075 v 0.16075 0.16074 h 0.16075 0.16075 v 0.16075 0.16075 h 0.321499 0.3215 v 0.16075 0.16075 h 0.16075 0.160749 v 0.16075 0.16075 h 0.16075 0.16075 v 0.16075 0.16075 h 0.160749 0.16075 v 0.16075 0.16075 h 0.16075 0.16075 v 0.16075 0.16075 h 0.321499 0.321499 v 0.16075 0.16075 h 0.16075 0.16075 v 0.11482 c 0,0.0632 0.06889,0.18372 0.153095,0.26792 l 0.153095,0.15309 h 0.275571 0.275571 v 0.16075 0.16075 h 0.160749 0.16075 v 0.16075 0.16075 h 0.16075 0.16075 v 0.16075 0.16075 h 0.321499 0.321499 v 0.16075 0.16075 h 0.16075 0.16075 v 0.16075 0.16075 h 0.321499 0.3215 v 0.16075 0.16075 h 0.16075 0.160749 v 0.16075 0.16075 h 0.3215 0.321499 v 0.16075 0.16075 h 0.16075 0.16075 v 0.16075 0.16075 h 0.321499 0.321499 v 0.16075 0.16075 h 0.16075 0.16075 v 0.16075 0.16075 h 0.321499 0.3215 v 0.16075 0.16075 h 0.321499 0.3215 v 0.16075 0.16075 h 0.321499 0.3215 v 0.16075 0.16075 h 0.160749 0.16075 v 0.16075 0.16075 h 0.321499 0.3215 v 0.16074 0.16075 h 0.321499 0.3215 v 0.16075 0.16075 h 0.321499 0.3215 v 0.16075 0.16075 h 0.321499 0.321499 v 0.16075 0.16075 h 0.48225 0.482249 v 0.16075 0.16075 h 0.321499 0.3215 v 0.16075 0.16075 h 0.321499 0.3215 v 0.16075 0.16075 h 0.321499 0.321499 v 0.16075 0.16075 h 0.48225 0.482249 v 0.16075 0.16075 h 0.482249 0.482249 v 0.16075 0.16075 h 0.482249 0.482249 v 0.16075 0.16075 h 0.642999 0.642999 v 0.16075 0.16075 h 0.428666 0.428666 v 0.16075 0.16075 h 0.642999 0.642999 v 0.16075 0.16075 h 0.803748 0.803749 v 0.16075 0.16075 h 1.125248 1.125248 v 0.16075 0.16075 h 0.16075 0.160749 v 0.16075 0.16075 h -0.321499 -0.321499 z m 2.571995,-0.9645 v -0.16075 h -1.607497 -1.607497 v -0.16075 -0.16075 H 42.153998 41.1895 v -0.16075 -0.16075 h -0.803749 -0.803748 v -0.16075 -0.16075 h -0.642999 -0.642999 v -0.16075 -0.16075 h -0.428666 -0.428666 v -0.16075 -0.16075 h -0.482249 -0.482249 v -0.16075 -0.16075 h -0.482249 -0.482249 v -0.16075 -0.16075 h -0.48225 -0.482249 v -0.16075 -0.16075 H 34.062929 33.58068 v -0.16075 -0.16075 h -0.321499 -0.3215 v -0.16075 -0.16075 h -0.321499 -0.3215 v -0.16075 -0.16075 h -0.321499 -0.3215 v -0.16075 -0.16075 h -0.482249 -0.482249 v -0.16075 -0.16074 h -0.321499 -0.3215 v -0.16075 -0.16075 h -0.321499 -0.3215 v -0.16075 -0.16075 h -0.321499 -0.3215 v -0.16075 -0.16075 H 28.436689 28.11519 v -0.16075 -0.16075 h -0.16075 -0.16075 v -0.16075 -0.16075 h -0.321499 -0.3215 v -0.16075 -0.16075 h -0.321499 -0.3215 v -0.16075 -0.16075 h -0.160749 -0.16075 v -0.16075 -0.16075 h -0.3215 -0.321499 v -0.16075 -0.16075 h -0.321499 -0.3215 v -0.16075 -0.16075 h -0.16075 -0.160749 v -0.16075 -0.16075 h -0.16075 -0.16075 v -0.16075 -0.16075 h -0.321499 -0.3215 v -0.16075 -0.16075 h -0.160749 -0.16075 v -0.16075 -0.16075 h -0.16075 -0.16075 v -0.16075 -0.16075 H 22.649699 22.3282 v -0.10716 -0.10717 H 22.16745 22.0067 v -0.16075 -0.16075 h -0.16075 -0.160749 v -0.16075 -0.16075 h -0.16075 -0.16075 v -0.16075 -0.16075 h -0.160749 -0.16075 v -0.16075 -0.16075 h -0.267916 -0.267917 v -0.16075 -0.16075 H 20.34562 20.18487 v -0.16075 -0.16075 h -0.16075 -0.160749 v -0.16075 -0.16075 h -0.16075 -0.16075 v -0.16075 -0.16075 h -0.16075 -0.160749 v -0.16074 -0.16075 h -0.16075 -0.16075 v -0.16075 -0.16075 h -0.160749 -0.16075 v -0.16075 -0.16075 h -0.3215 -0.321499 v -0.16075 -0.16075 h -0.16075 -0.16075 v -0.16075 -0.16075 h -0.16075 -0.16075 v -0.16075 -0.16075 h -0.16075 -0.160749 v -0.16075 -0.16075 h -0.16075 -0.16075 v -0.16075 -0.16075 h -0.16075 -0.160749 v -0.16075 -0.16075 h -0.160749 -0.160749 v -0.16075 -0.16075 h -0.16075 -0.16075 v -0.3215 -0.3215 h -0.16075 -0.160749 v -0.16075 -0.16075 h -0.16075 -0.160749 v -0.16075 -0.16075 h -0.16075 -0.16075 v -0.16075 -0.16075 h -0.16075 -0.160749 v -0.16075 -0.16075 h -0.16075 -0.16075 v -0.3215 -0.3215 h -0.160749 -0.16075 v -0.16074 -0.16075 h 0.321499 0.3215 v -0.16075 -0.16075 h 1.607497 1.607496 v 0.16075 0.16075 h 0.16075 0.16075 v 0.32149 0.3215 h 0.16075 0.160749 v 0.16075 0.16075 h 0.16075 0.16075 v 0.3215 0.3215 h 0.16075 0.160749 v 0.16075 0.16075 h 0.16075 0.16075 v 0.16075 0.16075 h 0.160749 0.16075 v 0.3215 0.3215 h 0.16075 0.16075 v 0.16075 0.16075 h 0.160749 0.16075 v 0.16075 0.16075 h 0.16075 0.160749 v 0.16075 0.16075 h 0.16075 0.16075 v 0.16075 0.16075 h 0.107166 0.107167 v 0.16075 0.16075 h 0.16075 0.160749 v 0.16075 0.16075 h 0.16075 0.16075 v 0.16075 0.16075 h 0.160749 0.16075 v 0.16075 0.16075 h 0.16075 0.16075 v 0.16075 0.16075 h 0.321499 0.321499 v 0.16075 0.16074 h 0.16075 0.16075 v 0.16075 0.16075 h 0.16075 0.160749 v 0.16075 0.16075 h 0.3215 0.321499 v 0.16075 0.16075 h 0.16075 0.16075 v 0.16075 0.16075 h 0.160749 0.16075 v 0.16075 0.16075 h 0.16075 0.16075 v 0.16075 0.16075 h 0.321499 0.321499 v 0.16075 0.16075 h 0.3215 0.321499 v 0.16075 0.16075 h 0.16075 0.16075 v 0.10717 0.10716 h 0.321499 0.3215 v 0.16075 0.16075 h 0.160749 0.16075 v 0.16075 0.16075 h 0.3215 0.321499 v 0.16075 0.16075 h 0.321499 0.3215 v 0.16075 0.16075 h 0.16075 0.160749 v 0.16075 0.16075 h 0.3215 0.321499 v 0.16075 0.16075 h 0.3215 0.321499 v 0.16075 0.16075 h 0.321499 0.3215 v 0.16075 0.16075 h 0.321499 0.3215 v 0.16075 0.16075 h 0.321499 0.3215 v 0.16075 0.16075 h 0.321499 0.3215 v 0.16075 0.16075 h 0.321499 0.321499 v 0.16075 0.16075 h 0.48225 0.482249 v 0.16075 0.16075 h 0.321499 0.3215 v 0.16075 0.16075 h 0.321499 0.321499 v 0.16075 0.16075 h 0.3215 0.321499 v 0.16074 0.16075 h 0.48225 0.482249 v 0.16075 0.16075 h 0.428666 0.428666 v 0.16075 0.16075 h 0.321499 0.321499 v 0.16075 0.16075 h 0.48225 0.482249 v 0.16075 0.16075 h 0.482249 0.482249 v 0.16075 0.16075 h 0.482249 0.482249 v 0.16075 0.16075 h 0.3215 0.321499 v 0.16075 0.16075 h 0.642999 0.642999 v 0.16075 0.16075 h 0.482249 0.482249 v 0.16075 0.16075 h 0.642999 0.642999 v 0.16075 0.16075 h 0.482249 0.482249 v 0.16075 0.16075 h 0.642999 0.642999 v 0.3215 0.3215 h -1.125248 -1.125248 z m 4.822492,-0.9645 v -0.16075 h -1.607498 -1.607497 v -0.16075 -0.16075 H 47.13724 46.333491 v -0.16075 -0.16075 h -0.803749 -0.803748 v -0.16075 -0.16075 h -0.642999 -0.642999 v -0.16075 -0.16075 h -0.482249 -0.482249 v -0.16075 -0.16075 h -0.482249 -0.48225 v -0.16075 -0.16075 H 41.02875 40.546501 v -0.16075 -0.16075 h -0.16075 -0.160749 v -0.16075 -0.16075 h -0.16075 -0.16075 v -0.3215 -0.32149 h -0.160749 -0.16075 v -0.3215 -0.3215 h -0.16075 -0.16075 v -0.16075 -0.16075 h -0.160749 -0.16075 v -0.3215 -0.3215 h -0.16075 -0.160749 v -0.3215 -0.3215 h -0.16075 -0.16075 v -0.16075 -0.16075 h -0.107166 -0.107167 v -0.3215 -0.3215 h -0.16075 -0.160749 v -0.80375 -0.80375 h -0.16075 -0.16075 v -1.07166 -1.07167 h -0.160749 -0.16075 v -0.48225 -0.48224 h 2.196913 2.196912 v 0.16075 0.16074 h 0.16075 0.16075 v 0.16075 0.16075 h 0.16075 0.160749 v 0.16075 0.16075 h 0.3215 0.321499 v 0.16075 0.16075 h 0.16075 0.16075 v 0.16075 0.16075 h 0.160749 0.16075 v 0.16075 0.16075 h 0.16075 0.16075 v 0.16075 0.16075 h 0.321499 0.321499 v 0.16075 0.16075 h 0.16075 0.16075 v 0.16075 0.16075 h 0.16075 0.160749 v 0.10717 0.10716 h 0.16075 0.16075 v 0.16075 0.16075 h 0.321499 0.3215 v 0.16075 0.16075 h 0.160749 0.16075 v 0.16075 0.16075 h 0.16075 0.160749 v 0.16075 0.16075 h 0.3215 0.321499 v 0.16075 0.16075 h 0.16075 0.16075 v 0.16075 0.16075 h 0.16075 0.160749 v 0.16075 0.16075 h 0.3215 0.321499 v 0.16075 0.16075 h 0.16075 0.16075 v 0.16075 0.16075 h 0.160749 0.16075 v 0.16075 0.16075 h 0.321499 0.3215 v 0.16075 0.16075 l 0.642999,0.3215 h 0.321499 v 0.16075 0.16075 h 0.16075 0.16075 v 0.16075 0.16075 h 0.321499 0.3215 v 0.16075 0.16075 h 0.160749 0.16075 v 0.16074 0.16075 h 0.321499 0.3215 v 0.16075 0.16075 h 0.16075 0.160749 v 0.16075 0.16075 h 0.3215 0.321499 v 0.16075 0.16075 h 0.3215 0.321499 v 0.16075 0.16075 h 0.16075 0.160749 v 0.16075 0.16075 h 0.3215 0.321499 v 0.16075 0.16075 h 0.267917 0.267916 v 0.16075 0.16075 h 0.321499 0.3215 v 0.16075 0.16075 h 0.482249 0.482249 v 0.16075 0.16075 h 1.125248 1.125248 v 0.16075 0.16075 h -4.286659 -4.286659 z m 1.607497,-4.17949 v -0.16075 h -0.16075 -0.16075 v -0.16075 -0.16075 h -0.321499 -0.321499 v -0.16075 -0.16075 h -0.16075 -0.16075 v -0.16075 -0.16075 h -0.16075 -0.160749 v -0.16075 -0.16075 h -0.3215 -0.321499 v -0.16075 -0.16075 h -0.16075 l -0.482249,-0.3215 v -0.16075 -0.16075 h -0.16075 -0.16075 v -0.16075 -0.16075 h -0.321499 -0.321499 v -0.16075 -0.16075 h -0.16075 -0.16075 v -0.16075 -0.16075 h -0.16075 -0.160749 v -0.16075 -0.16075 h -0.16075 -0.16075 v -0.16075 -0.16075 h -0.321499 -0.3215 v -0.10716 -0.10717 H 47.13724 46.97649 v -0.16075 -0.16075 h -0.16075 -0.16075 v -0.16075 -0.16075 h -0.160749 -0.16075 v -0.16075 -0.16075 h -0.321499 -0.3215 v -0.16075 -0.16075 h -0.16075 -0.160749 v -0.16075 -0.16075 h -0.16075 -0.16075 v -0.16075 -0.16075 h -0.321499 -0.3215 v -0.16075 -0.16075 h -0.160749 -0.16075 v -0.16075 -0.16075 h -0.16075 -0.160749 v -0.16074 -0.16075 h -0.16075 -0.16075 v -0.16075 -0.16075 h -0.321499 -0.3215 v -0.16075 -0.16075 h -0.16075 -0.160749 v -0.16075 -0.16075 h -0.16075 -0.16075 v -0.16075 -0.16075 h -0.160749 -0.16075 v -1.12525 -1.12525 h 0.16075 0.160749 v -1.6075 -1.60749 h 0.16075 0.16075 v -0.643 -0.643 h 0.160749 0.16075 v 0.48225 0.48225 h 0.16075 0.16075 v 0.3215 0.3215 h 0.160749 0.16075 v 0.48225 0.48224 h 0.16075 0.16075 v 0.3215 0.3215 h 0.160749 0.16075 v 0.3215 0.3215 h 0.16075 0.160749 v 0.3215 0.3215 h 0.16075 0.16075 v 0.3215 0.3215 h 0.16075 0.160749 v 0.3215 0.3215 h 0.16075 0.16075 v 0.3215 0.3215 h 0.160749 0.16075 v 0.16075 0.16075 h 0.16075 0.16075 v 0.3215 0.3215 h 0.160749 0.16075 v 0.16075 0.16075 h 0.16075 0.160749 v 0.3215 0.32149 h 0.16075 0.16075 v 0.16075 0.16075 h 0.16075 0.160749 v 0.16075 0.16075 h 0.16075 0.16075 v 0.3215 0.3215 h 0.16075 0.160749 v 0.16075 0.16075 h 0.16075 0.16075 v 0.16075 0.16075 h 0.160749 0.16075 v 0.16075 0.16075 h 0.16075 0.16075 v 0.16075 0.16075 h 0.160749 0.16075 v 0.26792 0.26791 h 0.16075 0.160749 v 0.16075 0.16075 h 0.16075 0.16075 v 0.16075 0.16075 l 0.964498,0.9645 h 0.16075 0.16075 v 0.16075 0.16075 h 0.160749 0.16075 v 0.16075 0.16075 h 0.16075 0.16075 v 0.16075 0.16075 h 0.160749 0.16075 v 0.16075 0.16075 h 0.16075 0.160749 v 0.16075 0.16075 h 0.16075 0.16075 v 0.16075 0.16075 h 0.321499 0.3215 v 0.16075 0.16075 h -0.3215 -0.321499 z m -16.610805,-0.3215 v -0.16075 h -0.482249 -0.482249 v -0.16075 -0.16075 h -0.482249 -0.482249 v -0.16075 -0.16075 h -0.3215 -0.321499 v -0.16075 -0.16075 h -0.321499 -0.3215 v -0.16075 -0.16075 h -0.321499 -0.3215 v -0.16075 -0.16075 h -0.321499 -0.3215 v -0.16075 -0.16075 h -0.160749 -0.16075 v -0.16075 -0.16075 h -0.3215 -0.321499 v -0.16075 -0.16075 h -0.16075 -0.160749 v -0.16075 -0.16075 h -0.3215 -0.321499 v -0.16075 -0.16075 h -0.16075 -0.16075 v -0.16075 -0.16075 h -0.321499 -0.3215 v -0.10716 -0.10717 h -0.160749 -0.16075 v -0.16075 -0.16075 h -0.16075 -0.160749 v -0.16075 -0.16075 h -0.16075 -0.16075 v -0.16075 -0.16075 h -0.16075 -0.160749 v -0.16075 -0.16075 h -0.3215 -0.321499 v -0.16075 -0.16075 h -0.16075 -0.16075 v -0.16075 -0.16075 h -0.160749 -0.16075 v -0.16075 -0.16075 h -0.16075 -0.16075 v -0.16075 -0.16075 h -0.160749 -0.16075 v -0.16074 -0.16075 h -0.16075 -0.160749 v -0.16075 -0.16075 h -0.16075 -0.16075 v -0.16075 -0.16075 h -0.321499 -0.3215 v -0.16075 -0.16075 h -0.160749 -0.16075 v -0.16075 -0.16075 h -0.16075 -0.16075 v -0.16075 -0.16075 h -0.160749 -0.16075 v -0.3215 -0.3215 h -0.3215 -0.321499 v -0.16075 -0.16075 H 22.488949 22.3282 v -0.16075 -0.16075 H 22.16745 22.0067 v -0.16075 -0.16075 h -0.16075 -0.160749 v -0.3215 -0.3215 h -0.16075 -0.16075 v -0.16075 -0.16075 h -0.160749 -0.16075 v -0.16075 -0.16075 h -0.107167 -0.107166 v -0.16075 -0.16075 h -0.16075 -0.16075 v -0.16075 -0.16075 H 20.34562 20.18487 v -0.16075 -0.16075 h -0.16075 -0.160749 v -0.16074 -0.16075 h -0.16075 -0.16075 v -0.16075 -0.16075 h -0.16075 -0.160749 v -0.16075 -0.16075 h -0.16075 -0.16075 v -0.3215 -0.3215 h -0.160749 -0.16075 v -0.16075 -0.16075 h -0.16075 -0.16075 v -0.16075 -0.16075 h -0.160749 -0.16075 v -0.16075 -0.16075 h -0.16075 -0.16075 v -0.3215 -0.3215 h -0.16075 -0.16075 v -0.16075 -0.16075 h -0.16075 -0.160749 v -0.16075 -0.16075 h 0.482249 0.48225 v 0.16075 0.16075 h 0.321499 0.3215 v 0.16075 0.16075 h 0.321499 0.3215 v 0.16075 0.16075 h 0.482249 0.482249 v 0.16075 0.16075 h 0.321499 0.3215 v 0.16075 0.16075 h 0.267916 0.267916 v 0.16075 0.16075 h 0.482249 0.48225 v 0.16075 0.16075 h 0.321499 0.321499 v 0.16075 0.16075 h 0.3215 0.321499 v 0.16075 0.16075 h 0.3215 0.321499 v 0.16075 0.16075 h 0.3215 0.321499 v 0.16075 0.16075 h 0.3215 0.321499 v 0.16075 0.16074 h 0.482249 0.482249 v 0.16075 0.16075 h 0.3215 0.321499 v 0.16075 0.16075 h 0.3215 0.321499 v 0.16075 0.16075 h 0.3215 0.321499 v 0.16075 0.16075 h 0.321499 0.3215 v 0.16075 0.16075 h 0.321499 0.3215 v 0.16075 0.16075 h 0.482249 0.482249 v 0.16075 0.16075 h 0.321499 0.3215 v 0.16075 0.16075 h 0.321499 0.3215 v 0.16075 0.16075 h 0.321499 0.3215 v 0.16075 0.16075 h 0.160749 0.16075 v 0.16075 0.16075 h 0.482249 0.482249 v 0.16075 0.16075 h 0.3215 0.321499 v 0.16075 0.16075 h 0.3215 0.321499 v 0.16075 0.16075 h 0.16075 0.16075 v 0.16075 0.16075 h 0.160749 0.16075 v 1.44674 1.44675 h 0.16075 0.160749 v 0.91092 0.91091 h 0.16075 0.16075 v 0.80375 0.80375 h 0.16075 0.160749 v 0.643 0.643 h -0.321499 -0.3215 z m 3.107828,-8.25182 v -0.16075 h -0.482249 -0.482249 v -0.16075 -0.16075 h -0.267916 -0.267916 v -0.16075 -0.16075 h -0.482249 -0.48225 v -0.16075 -0.16075 h -0.321499 -0.3215 v -0.16075 -0.16075 h -0.482249 -0.482249 v -0.16075 -0.16075 h -0.321499 -0.3215 v -0.16075 -0.16075 h -0.321499 -0.3215 v -0.16075 -0.16075 H 33.58068 33.259181 v -0.16075 -0.16075 h -0.3215 -0.321499 v -0.16075 -0.16075 h -0.48225 -0.482249 v -0.16075 -0.16075 h -0.321499 -0.3215 v -0.16075 -0.16075 h -0.321499 -0.321499 v -0.16075 -0.16075 h -0.3215 -0.321499 v -0.16074 -0.16075 h -0.3215 -0.321499 v -0.16075 -0.16075 h -0.3215 -0.321499 v -0.16075 -0.16075 h -0.321499 -0.3215 v -0.16075 -0.16075 h -0.482249 -0.482249 v -0.16075 -0.16075 h -0.3215 -0.321499 v -0.16075 -0.16075 h -0.3215 -0.321499 v -0.16075 -0.16075 h -0.321499 -0.3215 v -0.16075 -0.16075 h -0.321499 -0.3215 v -0.16075 -0.16075 h -0.321499 -0.3215 v -0.16075 -0.16075 h -0.321499 -0.3215 v -0.16075 -0.16075 H 22.649699 22.3282 v -0.16075 -0.16075 h -0.3215 -0.321499 v -0.16075 -0.16075 h -0.3215 -0.321499 v -0.16075 -0.16075 h -0.267916 -0.267917 v -0.16075 -0.16075 H 20.18487 19.863371 v -0.16075 -0.16075 h -0.3215 -0.321499 v -0.16075 -0.16075 h -0.3215 -0.321499 v -0.16075 -0.16075 h -0.3215 -0.321499 v -0.16074 -0.16075 h -0.16075 -0.16075 v -0.16075 -0.16075 h 1.607498 1.607497 v -0.16075 -0.16075 h 3.000661 3.000662 v -0.16075 -0.16075 h 2.893495 2.893495 v -0.16075 -0.16075 h 2.089746 2.089746 v -0.16075 -0.16075 h 2.196913 2.196913 v 1.286 1.28599 h -0.16075 -0.160749 v 2.08975 2.08975 h -0.16075 -0.16075 v 1.28599 1.286 h -0.16075 -0.160749 v 0.80375 0.80375 h -0.16075 -0.16075 v 0.3215 0.3215 h -0.160749 -0.16075 v 0.16075 0.16075 h -0.16075 -0.16075 z"
       style="fill:#2b2e66;fill-opacity:1"
       id="path1-8" /></g></svg>
